{
  "title": "Bad Moms 2016 Movies HD Cam XviD Clean Audio New +Sample ~ â˜»rDXâ˜»",
  "uid": 15529133,
  "size": 740215413,
  "categoryP": "video",
  "categoryS": "movies",
  "magnet": "?xt=urn:btih:11204dd3ee0d4cc6b296c306ce3a5faaa755748c&amp;dn=Bad+Moms+2016+Movies+HD+Cam+XviD+Clean+Audio+New+%2BSample+%7E+%E2%98%BBrDX%E2%98%BB&amp;tr=udp%3A%2F%2Ftracker.leechers-paradise.org%3A6969&amp;tr=udp%3A%2F%2Fzer0day.ch%3A1337&amp;tr=udp%3A%2F%2Fopen.demonii.com%3A1337&amp;tr=udp%3A%2F%2Ftracker.coppersurfer.tk%3A6969&amp;tr=udp%3A%2F%2Fexodus.desync.com%3A6969",
  "seeders": 75,
  "leechers": 21,
  "uploader": "basicssom",
  "files": 2,
  "time": 1470809114,
  "description": "----------------------------------------------------------------\r\nBad Moms 2016 English Movies HD Cam XviD AAC Clean Audio New Source with Sample â˜»rDXâ˜»\r\n\r\n\r\nSCREEN SHOTS &amp; POSTER:\r\n  \nhttp://postimage.co.nr/2016/8/payment/index.htm  \nhttp://postimage.co.nr/2016/8/payment/1.html  \nhttp://postimage.co.nr/2016/8/payment/2.html  \nhttp://postimage.co.nr/2016/8/payment/3.html  \nhttp://postimage.co.nr/2016/8/payment/4.html  \nhttp://postimage.co.nr/2016/8/payment/5.html  \nhttp://postimage.co.nr/2016/8/payment/6.html  \nhttp://postimage.co.nr/2016/8/payment/7.html  \nhttp://postimage.co.nr/2016/8/payment/8.html  \nhttp://postimage.co.nr/2016/8/payment/9.html  \nhttp://postimage.co.nr/2016/8/payment/10.html\r\n\r\nFormat                                   : Matroska\r\nFormat version                           : Version 4 / Version 2\r\nFile size                                : 699 MiB\r\nDuration                                 : 1 h 31 min\r\nOverall bit rate mode                    : Constant\r\nOverall bit rate                         : 1 064 kb/s\r\nMovie name                               : Bad Moms 2016 English Movies HD Cam XviD AAC Clean Audio New Source ?rDX?\r\n\r\nVideo\r\nID                                       : 2\r\nFormat                                   : AVC\r\nFormat/Info                              : Advanced Video Codec\r\nFormat profile                           :   \r\nFormat settings, CABAC                   : Yes\r\nFormat settings, ReFrames                : 2 frames\r\nFormat settings, GOP                     : M=1, N=12\r\nCodec ID                                 : V_MPEG4/ISO/AVC\r\nDuration                                 : 1 h 31 min\r\nBit rate mode                            : Constant\r\nBit rate                                 : 809 kb/s\r\nWidth                                    : 720 pixels\r\nHeight                                   : 304 pixels\r\nDisplay aspect ratio                     : 2.35:1\r\nFrame rate mode                          : Constant\r\nFrame rate                               : 29.910 FPS\r\nColor space                              : YUV\r\nChroma subsampling                       : 4:2:0\r\nBit depth                                : 8 bits\r\nScan type                                : Progressive\r\nBits/(Pixel*Frame)                       : 0.124\r\nStream size                              : 517 MiB (74%)\r\nTitle                                    : ?rDX?\r\nDefault                                  : Yes\r\nForced                                   : No\r\n\r\nAudio\r\nID                                       : 1\r\nFormat                                   : AC-3\r\nFormat/Info                              : Audio Coding 3\r\nMode extension                           : CM (complete main)\r\nFormat settings, Endianness              : Big\r\nCodec ID                                 : A_AC3\r\nDuration                                 : 1 h 31 min\r\nBit rate mode                            : Constant\r\nBit rate                                 : 256 kb/s\r\nChannel(s)                               : 2 channels\r\nChannel positions                        : Front: L R\r\nSampling rate                            : 48.0 kHz\r\nFrame rate                               : 31.250 FPS (1536 spf)\r\nCompression mode                         : Lossy\r\nStream size                              : 168 MiB (24%)\r\nTitle                                    : ?rDX?\r\nDefault                                  : Yes\r\nForced                                   : No\r\n\r\nIMDB \nhttp://www.imdb.com/title/tt4651520/",
  "parsed": {
    "xt": "urn:btih:11204dd3ee0d4cc6b296c306ce3a5faaa755748c",
    "dn": "Bad Moms 2016 Movies HD Cam XviD Clean Audio New  Sample ~ ☻rDX☻",
    "tr": [
      "udp://exodus.desync.com:6969",
      "udp://open.demonii.com:1337",
      "udp://tracker.coppersurfer.tk:6969",
      "udp://tracker.leechers-paradise.org:6969",
      "udp://zer0day.ch:1337"
    ],
    "infoHash": "11204dd3ee0d4cc6b296c306ce3a5faaa755748c",
    "infoHashBuffer": {
      "type": "Buffer",
      "data": [
        17,
        32,
        77,
        211,
        238,
        13,
        76,
        198,
        178,
        150,
        195,
        6,
        206,
        58,
        95,
        170,
        167,
        85,
        116,
        140
      ]
    },
    "name": "Bad Moms 2016 Movies HD Cam XviD Clean Audio New  Sample ~ ☻rDX☻",
    "announce": [
      "udp://exodus.desync.com:6969",
      "udp://open.demonii.com:1337",
      "udp://tracker.coppersurfer.tk:6969",
      "udp://tracker.leechers-paradise.org:6969",
      "udp://zer0day.ch:1337"
    ],
    "urlList": []
  },
  "previous": 105,
  "peers": 69,
  "last_updated": "2016-12-26T16:36:11.640Z"
}